<?xml version="1.0" encoding="UTF-8"?>
<svg id="Layer_2" data-name="Layer 2" xmlns="http://www.w3.org/2000/svg" viewBox="0 0 283.46 283.46">
  <defs>
    <style>
      .cls-1 {
        fill: #164194;
      }

      .cls-2 {
        fill: #d51130;
      }

      .cls-3 {
        fill: #fff;
      }

      .cls-4 {
        fill: #a17ea9;
        opacity: 0;
      }
    </style>
  </defs>
  <g id="Layer_2-2" data-name="Layer 2">
    <rect class="cls-4" width="283.46" height="283.46"/>
  </g>
  <g id="Ebene_1" data-name="Ebene 1">
    <g>
      <g>
        <g>
          <path class="cls-1" d="M52.99,156.59h-7.94l.58-2.18h18.4l-.58,2.18h-7.97l-5.87,21.91h-2.49l5.87-21.91Z"/>
          <path class="cls-1" d="M67.19,154.41h2.46l-2.76,10.3h13.59l2.76-10.3h2.46l-6.45,24.09h-2.46l3.11-11.61h-13.59l-3.11,11.61h-2.46l6.45-24.09Z"/>
          <path class="cls-1" d="M94.52,154.41l-3.89,14.55c-1.63,6.08,1.33,7.68,4.59,7.68,3.84,0,7.07-1.67,8.68-7.68l3.89-14.55h2.49l-3.86,14.42c-2.05,7.66-6.8,9.96-11.85,9.96s-8.42-2.51-6.5-9.69l3.93-14.69h2.52ZM97.44,151.78l.95-3.54h2.13l-.95,3.54h-2.13ZM104.13,151.78l.95-3.54h2.13l-.95,3.54h-2.13Z"/>
          <path class="cls-1" d="M115.4,167.54l-2.94,10.96h-2.47l6.45-24.09h8.98c4.84,0,6.71,2.61,5.69,6.38-.83,3.09-3.16,5.05-5.84,5.65,2.09.56,3.36,2.11,2.25,6.24l-.26.97c-.45,1.68-1.15,3.87-.98,4.83h-2.44c-.17-1.04.41-2.94.99-5.09l.15-.57c1-3.72.34-5.3-4.14-5.3h-5.47ZM115.98,165.38h5.55c3.98,0,6.19-1.49,6.98-4.45.74-2.78-.64-4.36-4.17-4.36h-6l-2.36,8.81Z"/>
          <path class="cls-1" d="M140.59,154.41l-6.45,24.09h-2.46l6.45-24.09h2.46Z"/>
          <path class="cls-1" d="M140.65,178.5l6.45-24.09h3.42c2.08,5.71,6.88,18.5,7.62,21.12h.04c.66-3.3,1.67-6.96,2.73-10.89l2.74-10.23h2.4l-6.45,24.09h-3.19c-1.95-5.42-6.77-18.92-7.68-21.59h-.04c-.62,2.98-1.65,6.74-2.82,11.1l-2.81,10.49h-2.4Z"/>
          <path class="cls-1" d="M184.81,178.5h-1.96c-.05-.36.18-1.52.69-3.59-1.39,1.68-3.96,3.89-8.68,3.89-6.93,0-9.12-5.27-7.29-12.12,1.93-7.2,7.24-12.61,14.38-12.61,5.37,0,8.08,2.86,7.64,7.24h-2.46c-.11-3.08-1.75-5.09-5.82-5.09-5.82,0-9.56,4.58-11.1,10.34-1.41,5.26-.24,10.09,5.44,10.09s8.28-3.77,9.55-8.54l.07-.27h-7.32l.58-2.18h9.71l-3.44,12.84Z"/>
          <path class="cls-1" d="M208.2,166.92h-12.14l-2.51,9.4h13.31l-.92,2.18h-15.4l6.45-24.09h15.17l-.58,2.18h-12.74l-2.18,8.15h12.14l-.58,2.18Z"/>
          <path class="cls-1" d="M210.49,178.5l6.45-24.09h3.42c2.08,5.71,6.88,18.5,7.62,21.12h.04c.66-3.3,1.67-6.96,2.73-10.89l2.74-10.23h2.4l-6.45,24.09h-3.19c-1.95-5.42-6.77-18.92-7.68-21.59h-.04c-.62,2.98-1.65,6.74-2.82,11.1l-2.81,10.49h-2.4Z"/>
        </g>
        <g>
          <path class="cls-3" d="M203.5,71.54l-9.47,35.33c-10.9,42.98,42.4,42.93,52.32,6.09,3.65-13.56,7.31-27.34,11.07-41.42h-53.92Z"/>
          <path class="cls-2" d="M203.12,70.72l-9.7,36.19c-11.16,44.02,43.42,43.97,53.58,6.23,3.74-13.89,11.34-42.42,11.34-42.42h-55.22ZM241.53,74.51h2.28l1.23-1.83.67,1.83h2.2s-1.55,1.85-1.55,1.85l.77,1.81h-2.04s-1.61,1.86-1.61,1.86l-.56-1.86h-1.93l1.14-1.73-.6-1.93ZM231.75,73.08c.83-.23,1.54-.29,2.13-.29.45,0,.83.04,1.13.05.84.05,1.01.23,1.01.3.02.14-.34.57-.91,1.1-.43.43-2.29,1.17-3.52,1.2-.19,0-.36,0-.53,0-.88,0-1.55-.09-1.98-.23-.44-.15-.58-.32-.57-.45-.05-.32.99-1.09,3.25-1.69ZM225.29,76.32c.75-.3,1.66-.38,2.46-.38.74,0,1.38.08,1.67.12-.08.35-.13.68-.14.98-.02.71.26,1.29,1.04,1.29,1.37-.04,1.55-1.54,1.58-2.01.5-.05,2.14-.3,3.71-1.47.82-.95,2.05-1.46,2.98-1.46.82.01,1.33.34,1.31,1.08,0,.24-.07.52-.22.86-.59,1.4-2.28,1.46-2.82,2.29-.61,2.75-2.32,6.94-6.12,8.87-1.43.72-2.69.97-3.75.97-1.79,0-3.01-.7-3.44-.99-.21-.15-.29-.36-.28-.57.02-.3.19-.54.5-.54.08,0,.17.02.27.06.71.28,1.3.59,2.44.59.31,0,.67-.02,1.07-.07,1.49-.21,2.89-2.03,2.96-3.69.02-.58-.13-1.15-.51-1.6-.98-1.16-2.25-1.46-3.33-1.46-.5,0-.96.06-1.35.13h0c-.6.09-1.06.15-1.38.15-.34,0-.48-.08-.48-.09,0,0-.02-.06,0-.18.02-.66.46-2.37,1.83-2.85ZM239.64,103.28h-2.04l-1.61,1.87-.55-1.87h-1.93s1.14-1.73,1.14-1.73l-.6-1.93h2.27l1.24-1.82.67,1.82h2.2l-1.56,1.86.77,1.8ZM230.69,94.14c-.35,0-.73.27-1.15.82-.52.7-1.7,2.45-2.76,4.04-.53.79-1.03,1.54-1.4,2.09-.18.28-.33.5-.44.66-.05.07-.09.13-.12.17l-2.53.16c1.47-2.07,3.6-5.1,4.31-6.08.24-.34.35-.68.36-.96s-.13-.59-.44-.59c-.33.01-.66.28-1.07.85-.53.76-1.79,2.55-2.94,4.16-.58.8-1.13,1.56-1.55,2.12-.21.28-.39.51-.52.66-.06.08-.12.14-.16.17,0,0,0,.01-.02.01l-1.89-.11c1.44-2.21,3-4.32,4.44-6.51.2-.32.3-.6.31-.82,0-.27-.17-.51-.43-.51-.34,0-.72.28-1.13.83-.99,1.37-4.7,6.4-5.22,7.11l-1.9-.25c1.48-2.14,3.78-5.3,4.54-6.4.23-.34.34-.64.35-.89,0-.26-.15-.51-.43-.51-.35.01-.74.3-1.18.92-.95,1.32-4.38,5.86-4.9,6.56l-1.69-.37c1.35-2.02,3.05-4.43,4.37-6.43.14-.21.2-.4.21-.58.01-.3-.21-.53-.49-.53-.26,0-.53.17-.76.49-.56.78-3.03,4.24-3.56,5.05-.2.3-.64,1.01-1.13,1.4-.17.13-.51.26-.76.26-.26-.02-.37-.06-.38-.37,0-.17.08-.44.26-.81,1.51-3.04,4.08-7.53,8.68-10.13,3.43-1.96,8.77-.16,13.97-2.73h0c2.05-.89,3.99-3.83,4.73-5.06v.13c-.3,8.61-4.86,16.19-6.35,18.13l-3.13,1.04c.66-1.03,3.41-4.85,4-5.64.24-.36.36-.68.37-.94.01-.31-.18-.59-.49-.59ZM220.76,82.91c.1,0,.21,0,.35-.02.58-.15,1.12-.2,1.59-.2.83,0,1.51.17,1.89.34.26.11.92.66,1.65.86.18.05.37.07.55.07.66,0,1.29-.3,1.61-.84.22-.38.31-.72.32-1.03.02-.87-.63-1.4-1.18-1.4-.03,0-.05,0-.06,0,.02,0,0,0-.02,0-.28,0-.4-.18-.4-.19,0,0,0-.08.32-.11.07-.01.13-.02.19-.02,1.18,0,1.9,1.04,1.86,2.2-.03.88-.51,1.81-1.58,2.35-.47.14-.88.2-1.24.2-1.48.02-2.08-1.1-3.47-1.18-.28-.02-.52-.02-.73-.02-1.02,0-1.4.12-2.01.15-.98-.26-1.53-.13-1.51-2,.01-.34.29-.65.49-.65.1,0,.21.05.33.25.41.67.23,1.21,1.04,1.22ZM213.98,74.39h2.28l1.23-1.82.67,1.82h2.2s-1.56,1.85-1.56,1.85l.77,1.81h-2.04l-1.61,1.86-.55-1.86h-1.93s1.14-1.74,1.14-1.74l-.6-1.93ZM204.69,87c-.36-.25-.66-.48-.63-.68,0-.02,0-.04.01-.07.05-.33.77-1.21,1.07-1.16h0c.49.02.87.12,1.48.29.07,0,.1.01.14.01.37,0,.5-.36.51-.64,0-.34-.09-.69-.27-.89-.33-.29-1.14-.61-1.1-1.18,0-.02,0-.06.02-.1.09-.51.15-.77.18-.89.17-.03.52-.08.84-.08.28,0,.53.05.62.12.36.31.25.3.78.91.21.24.5.34.77.34.4,0,.83-.22.87-.65,0-.12-.03-.24-.1-.36-.27-.45-.59-.99-.57-1.59,0-.29.1-.59.32-.93.02-.03.09-.07.24-.07.4,0,1.13.37,1.39.93.38.76.21,3,.29,3.39.07.3.22.97,1.13,1.46.88.49,4.65,2.18,4.65,2.19.63.29,1.12.48,1.45.61.16.07.28.12.35.16,0,0,0,0,.01,0-.17.12-.8.38-1.81.84-1.45.66-3.07,1.98-4.06,3.11-.08.06-.15.08-.19.08-.3.1-.83-1.42-2.55-3.38-.25-.41-.93-.69-1.59-.69h-.02c-.5,0-1.03.21-1.22.76-.58,1.55-1.58,1.31-2.06,1.36-.06,0-.13,0-.2,0-.24,0-.52-.03-.69-.04.14-.55.67-2.25,1.5-2.18h.1c.58,0,.92-.29.94-.64.01-.31-.24-.6-.61-.6-.09,0-.18.02-.27.05-.52.17-.92.4-1.23.39-.17,0-.31-.05-.49-.2M200.27,94.69h2.28s1.23-1.82,1.23-1.82l.67,1.82h2.21s-1.56,1.86-1.56,1.86l.77,1.81h-2.05s-1.61,1.86-1.61,1.86l-.56-1.86h-1.93s1.14-1.74,1.14-1.74l-.6-1.93ZM197.75,110.53c-.58-.03-1.09-.15-1.34-.22.2-.36.66-1.18,1.14-1.81.58-.77,1.16-.72,2.03-.83.56-.07.93-.47.94-.87.01-.29-.23-.54-.6-.54-.04,0-.05,0-.06,0-.29,0-.71.06-1.11.06-.61,0-1.16-.13-1.46-.74,0,0,0-.03,0-.03-.01-.14.26-.53.65-.83.39-.31.88-.55,1.27-.55h0c.92.02,1.78.32,2.52.33h.06c2.85-.08,4.38-.8,5.24-1.52.43-.36.69-.72.85-.98.08-.13.15-.24.19-.3,0,0,0-.02.02-.02,2.2.66,4.45,1.21,6.78,1.63-.04.43-.77,2.13-1.72,3.01-.25.23-.44.31-.51.3-.06,0-.09-.02-.1-.22,0-.13.05-.32.15-.53.06-.15.1-.27.1-.38,0-.25-.18-.44-.4-.44-.35,0-.73.33-.85.9-.04.26-.57,1.54-.93,1.81-.19.16-.35.27-.45.32.03-.15.14-.46.32-.9.04-.14.07-.27.07-.4,0-.29-.05-.65-.41-.69-.25.02-.45.2-.71.57-.15.26-.65,1.61-.88,1.71-.19.11-.32.16-.38.17,0-.09.09-.31.2-.51.14-.27.19-.53.2-.74-.03-.17.06-.34-.23-.43-.12,0-.17.08-.19.12-.85,1.27-1.87.77-2.82,1.1-.02,0-.04,0-.05,0-.49,0-1.06.49-1.09,1.34,0,.24.03.5.11.8.02.07.03.17.03.28-.01.58-.43,1.53-.65,1.78-.19.23-.61.54-.81.69-.21-.23-.69-.84-.66-1.41,0-.15.04-.28.12-.43.11-.21.15-.39.16-.55.01-.37-.23-.64-.54-.64s-.6.25-.71.67c-.25.92-.5,1.39-.94,1.71-.46.34-.77.58-.94.61-.04-.09-.12-.53-.09-.97,0-.27.04-.54.08-.76.13-.68.36-.56.88-1.08.17-.18.25-.36.26-.54,0-.34-.25-.59-.55-.59-.05,0-.1.01-.13.02h0c-.53.2-1.3,1.52-2.02,1.5h-.03ZM198.1,119.94l1.15-1.74-.6-1.93h2.27l1.24-1.82.67,1.82h2.21s-1.56,1.86-1.56,1.86l.77,1.81h-2.04l-1.61,1.86-.55-1.86h-1.94ZM217.62,135.71h-2.04l-1.61,1.85-.55-1.85h-1.93s1.14-1.74,1.14-1.74l-.6-1.93h2.28s1.23-1.82,1.23-1.82l.67,1.82h2.2s-1.55,1.85-1.55,1.85l.77,1.81ZM216.98,121.59c0,.09,0,.19,0,.3-.04,1.62.32,1.64.78,2.27h-.04c-.72,0-1.17.35-1.19,1.03,0,.17.01.36.05.57-.71-.32-1.38-.64-1.85-.65-.26-.02-.54.17-.57.47-.02.08-.03.19-.03.28-.01.41.08.84.14,1.09-.66-.22-1.36-1.01-1.77-1.35h0c-.11-.09-.22-.09-.35-.1-1.16.04-4.68,1.26-5.15,1.99-.33.67-.35,1.8-1,2.34-.26-.63-.94-1.14-1.71-1.14-.18,0-.37.03-.56.1-.98.38-2.13,2.01-2.89,1.97-.06,0-.1,0-.14-.01-.97-.25-.79-.05-1.17-.46.08-.29.38-1.29.6-1.31.46-.16.65-.3,1.51-.38.35-.03.6-.21.61-.46,0-.33-.31-.55-.68-.56-.1,0-.2.02-.3.05-.14.05-.33.08-.55.08-.65.01-1.43-.28-1.51-.61.43-.51.8-1.03,1.45-1.02.13,0,.26.02.42.06.17.06.34.09.49.09.49,0,.79-.34.8-.69.01-.32-.24-.63-.67-.63-.04,0-.06,0-.06,0-.17,0-.35,0-.52,0-.71,0-1.31-.12-1.39-.41.67-.71,1.39-1.07,2.1-1.39.07-.03.14-.04.22-.04.57-.02,1.46.87,1.76,1.34.18.26.48.37.81.37,1.48-.01,4.06-1.95,4.73-2.33.8-.47,3.55-1.85,3.55-1.85l.14-.07-.28-.7-.09-.22-.18.16s-.48.46-1.25.45c-.47,0-1.06-.17-1.73-.76.02,0,.04,0,.06,0,.2,0,.43.06.64.06.18,0,.44-.12.45-.4,0-.03,0-.06,0-.1-.45-.62-.84-.03-1.53-1.05h.04c.25,0,.59.05.85.05.14-.01.37.03.44-.26,0-.07-.02-.13-.05-.18-.27-.41-.87-.79-1.18-1.33.08-.01.18-.02.27-.02.28,0,.57.04.78.04.09,0,.29.03.35-.23,0-.06-.01-.1-.03-.14-.4-.25-.66-.47-.86-.8.3,0,.74.17,1.4.17.43,0,.96-.07,1.61-.29,1.61-.8,5.94-3.19,5.94-3.19,1.46-.97,2.72-1.35,3.72-1.35,1.83,0,2.84,1.24,2.8,2.7-.04,1.21-.83,2.59-2.62,3.55-4.96,2.62-5.54,3.23-5.59,4.9ZM242.96,116.85h-2.05l-1.61,1.86-.55-1.86h-1.93s1.14-1.73,1.14-1.73l-.6-1.93h2.28s1.23-1.82,1.23-1.82l.67,1.82h2.2s-1.55,1.85-1.55,1.85l.78,1.81ZM242.83,106.34c-1.37,2.14-4.23,4.44-7.1,4.56-2.21.08-3.83,1.15-3.89,3.34-.03.76.13,1.65.49,2.68.36,1,1.74,2.57,3.42,2.93.74.15,1.4.24,1.87.32.2.03.38.07.49.09-.93.55-1.23.85-1.27,1.17,0,.2.18.31.3.31.15,0,.52.02.88.04-.62.37-1.07.62-1.15.98.06.37.4.35.96.38.11,0,.23,0,.36,0-.25.33-1.08.71-2.36.7-.09,0-.18,0-.28,0-.11-.01-.23-.02-.34-.02-1.03,0-1.84.59-2.71,2.48-1.22,2.07-3.18,6.93-5.84,7.1,0-.02-.08-.02-.14-.02-.55.02-1.01.55-1.38.95-.13.15-.54.25-.97.24-.42,0-.86-.08-1-.15.05.02.04-.04.05-.11,0-.27.18-.67.42-.98.23-.31.53-.52.67-.51.9-.12,1.35-.57,1.38-.99,0-.22-.17-.42-.42-.42-.08,0-.16.01-.23.04-.78.29-1.25,1.29-1.65,1.23h-.05c-.45-.07-1.04-.23-1.31-.3.12-.42.58-1.62,1.85-1.75.73,0,1.22-.3,1.26-.73,0-.29-.26-.48-.61-.49-.43.2-.81.3-1.18.3-.48,0-.92-.16-1.21-.45.11-.34.98-1.25,2.08-1.25.41,0,.85.12,1.31.42.48.24.84.35,1.16.35.77,0,1.07-.66,1.35-1.32.39-.9,2.06-2.95,2.06-2.95.02-.03.37-.61.4-1.14.01-.39-.24-.78-.85-.78-.12,0-.25.01-.41.04-.56.09-1.21.2-1.85.2-1.54-.02-2.99-.53-3.16-3.39-.01-.18-.01-.34,0-.5.09-2.23,1.53-3.32,1.74-3.86.04-.17.19-.73.22-1.46.05-1.39-.36-3.43-2.77-4.21-5.3-.37-7.17-4.02-7.68-6.19.7.05,1.52.08,2.38.08,3.69,0,8.35-.46,10.31-1.5.76,3.07,3.7,6.56,7.77,6.57,1.03,0,2.14-.23,3.29-.75,2.66-1.2,3.79-3.41,3.86-5.69.07-1.96-.61-3.99-1.71-5.57-1.02-1.46-1.25-2.63-1.22-3.59.04-1.11.44-1.93.47-2.6,0-.08,0-.15,0-.23-.04-.24-.04-.52-.03-.81.05-1.62.74-3.84,1.59-5.15.79-1.25,3.27-2.67,4.27-3.09-.86.83-3.33,2.82-3.41,3.97v.29s.25-.14.25-.14c.4-.23,1.65-1.02,2.49-1.45.43-.23.79-.59,1.05-.9-.27.77-.81,1.93-1.63,2.27-1.46.66-2.28,1.94-2.63,2.6l-.17.32.35-.08c.52-.13,4.28-1.36,6.33-6.18-.26,2.6-1.85,6.22-4.27,7.06-2.76.94-3.79,1.81-3.84,3.75,0,.08,0,.16,0,.25,0,2.07,1.42,3.14,2.09,5.05.41,1.04.53,1.79,1.02,1.9.06,0,.13-.02.18-.06.11-.1.3-.27.48-.43-.29.61-.69,1.4-.71,1.81,0,.12.07.33.27.33.02,0,.06,0,.1-.01l.56-.15c-.28.51-.77,1.24-.8,1.62,0,.11.11.28.26.28.05,0,.1,0,.15-.02l1.12-.37c-.82.86-2.51,2.71-3.13,3.79ZM247.77,94.8l-1.61,1.85-.55-1.85h-1.93s1.14-1.74,1.14-1.74l-.61-1.92h2.28l1.23-1.84.67,1.83h2.21l-1.56,1.85.77,1.81h-2.04Z"/>
        </g>
        <g>
          <path class="cls-1" d="M62.7,90.86h-20.52l5.39-20.14h69.27l-5.39,20.14h-26.48l-12.29,45.94h-22.26l12.29-45.94Z"/>
          <path class="cls-1" d="M140.2,90.86h-21.15l5.4-20.14h33.24l3.25,36.61,14.94-36.61h22.85l-31.37,66.09h-20.6l-6.57-45.94Z"/>
          <path class="cls-1" d="M104.79,140.72c-10.8-.02-21.39-5.52-21.39-16.05,0-1.3.15-2.67.47-4.11l6.98-25.98h19.58l-5.54,20.73c-.25.99-.48,2.66-.48,2.66.01,2.87,1.36,3.91,3.15,3.91l.32-.03c1.78.01,3.72-1.58,4.37-4.42l6.12-22.85h19.79l-7.41,27.25c-3.78,14.17-14.61,18.89-25.95,18.89h0Z"/>
        </g>
      </g>
      <polygon class="cls-1" points="48.26 213.39 29.8 213.39 36.26 189.3 54.71 189.3 48.26 213.39"/>
      <polygon class="cls-1" points="220.09 213.39 167.81 213.39 174.26 189.3 226.55 189.3 220.09 213.39"/>
      <g>
        <path class="cls-1" d="M57.89,189.29h2.34l-3.34,12.48c3.63-2.95,10.7-8.71,15.24-12.48h2.89l-12.33,10.06,6.44,14.03h-2.89l-5.62-12.48-4.39,3.36-2.44,9.12h-2.35l6.46-24.09Z"/>
        <path class="cls-1" d="M76.7,205.47l-4.8,7.92h-2.4c4.01-6.51,10.23-16.7,14.76-24.09h2.95l2.18,24.09h-2.58l-.6-7.92h-9.5ZM86.09,203.43c-.52-6.69-.98-10.32-.95-12.13h-.07c-1.51,2.9-3.85,6.6-7.21,12.13h8.23Z"/>
        <path class="cls-1" d="M98.53,202.06l-3.04,11.33h-2.37l6.46-24.09h8.34c4.3,0,6.74,2.06,5.66,6.1-.95,3.55-3.63,5.09-5.68,5.63,2.45.76,3.1,2.78,2.19,6.17l-.1.37c-.61,2.26-1.15,4.39-1.21,5.83h-2.39c-.07-.95.51-3.4,1.14-5.76l.11-.43c.98-3.66.01-5.14-4.41-5.14h-4.71ZM99.06,200.1h4.9c3.56,0,6.16-.99,7.13-4.63.73-2.71-.7-4.22-4.02-4.22h-5.64l-2.37,8.85Z"/>
        <path class="cls-1" d="M120.7,189.29h8.08c4.62,0,7.18,2.32,6.07,6.48-1.24,4.63-5.15,6.86-10.04,6.86h-5.29l-2.88,10.75h-2.39l6.46-24.09ZM120.04,200.65h5.23c3.44,0,6.1-1.12,7.1-4.84.83-3.11-1.12-4.57-4.58-4.57h-5.23l-2.52,9.4Z"/>
        <path class="cls-1" d="M136.98,205.47l-4.8,7.92h-2.4c4.01-6.51,10.23-16.7,14.76-24.09h2.95l2.18,24.09h-2.58l-.6-7.92h-9.5ZM146.37,203.43c-.52-6.69-.98-10.32-.95-12.13h-.07c-1.51,2.9-3.85,6.6-7.21,12.13h8.23Z"/>
        <path class="cls-1" d="M160.82,191.33h-7.49l.55-2.04h17.42l-.55,2.04h-7.53l-5.91,22.05h-2.39l5.91-22.05Z"/>
      </g>
    </g>
  </g>
</svg>